<svg width="240" height="72" viewBox="0 0 240 72" fill="none" xmlns="http://www.w3.org/2000/svg">
  <defs>
    <linearGradient id="g1" x1="0" y1="0" x2="1" y2="1">
      <stop offset="0%" stop-color="#14B8A6"/>
      <stop offset="100%" stop-color="#2563EB"/>
    </linearGradient>
    <linearGradient id="g2" x1="0" y1="0" x2="1" y2="1">
      <stop offset="0%" stop-color="#22C55E"/>
      <stop offset="100%" stop-color="#0EA5E9"/>
    </linearGradient>
  </defs>

  <rect x="4" y="8" width="56" height="56" rx="14" fill="#0F172A"/>
  <rect x="10" y="14" width="44" height="44" rx="10" fill="url(#g1)"/>

  <circle cx="32" cy="27" r="3" fill="#0F172A"/>
  <circle cx="44" cy="27" r="3" fill="#0F172A"/>
  <rect x="29" y="35" width="18" height="4" rx="2" fill="#0F172A"/>
  <rect x="31" y="7" width="2" height="6" rx="1" fill="#34D399"/>
  <rect x="43" y="7" width="2" height="6" rx="1" fill="#34D399"/>
  <circle cx="32" cy="45" r="2.5" fill="#0F172A"/>
  <circle cx="40" cy="45" r="2.5" fill="#0F172A"/>
  <path d="M20 20L13 24V34C13 40 17 45 23 46" stroke="#E2E8F0" stroke-width="2.5" stroke-linecap="round"/>
  <path d="M51 24L58 28V38C58 44 54 49 48 50" stroke="#E2E8F0" stroke-width="2.5" stroke-linecap="round"/>

  <circle cx="74" cy="40" r="6" fill="url(#g2)"/>
  <rect x="69" y="47" width="10" height="10" rx="3" fill="#0EA5E9"/>
  <circle cx="92" cy="40" r="6" fill="#22C55E"/>
  <rect x="87" y="47" width="10" height="10" rx="3" fill="#14B8A6"/>
  <rect x="71" y="60" width="24" height="3" rx="1.5" fill="#94A3B8"/>

  <path d="M63 24H95" stroke="#22C55E" stroke-width="3" stroke-linecap="round"/>
  <path d="M95 24L90 20M95 24L90 28" stroke="#22C55E" stroke-width="3" stroke-linecap="round" stroke-linejoin="round"/>

  <text x="105" y="34" fill="#E2E8F0" font-family="Segoe UI, Arial, sans-serif" font-size="17" font-weight="700">
    StudyCompanion
  </text>
  <text x="105" y="52" fill="#93C5FD" font-family="Segoe UI, Arial, sans-serif" font-size="13" font-weight="600">
    AI Teaching Assistant
  </text>
</svg>
